<svg fill="none" height="18" viewBox="0 0 28 18" width="28" xmlns="http://www.w3.org/2000/svg"><g fill="#3e4651"><path d="m4.81665 7.87905c-2.63553 0-4.81665 2.13565-4.81665 4.81665s2.18112 4.8167 4.81665 4.8167 4.81665-2.1812 4.81665-4.8167-2.13568-4.81665-4.81665-4.81665zm0 7.36125c-1.40864 0-2.54464-1.136-2.54464-2.5446s1.136-2.5446 2.54464-2.5446 2.54465 1.136 2.54465 2.5446-1.13601 2.5446-2.54465 2.5446z"/><path d="m25.5374 8.56065.318-.54528c-.8633-.49984-1.8176-.77248-2.8172-.77248-.2727 0-.5908.04544-.8634.09088l-3.1354-6.361618-3.6806-.9088019c-.3635-.1817601-.8179.0454399-.9543.4544009-.1363.408961.0455.817919.409.999679l2.5901 1.18145.4089.77248c-4.7257.31808-6.5888 2.81728-8.7699 1.8176-1.49952-.81792-3.86241-1.18144-5.31649-1.3632-.63616-.09088-1.22688.40896-1.22688 1.09056-.04544.59072.40896 1.136.99968 1.18144 1.3632.13632 3.31713.4544 4.45313 1.09057 0 0 3.18076 1.54496 3.22626 5.86177 0 .409.3181.727.727.727h2.9082c.3181 0 .5907-.2272.6816-.4998.3635-1.2269 1.4086-4.36225 3.7261-6.99778l.8633 1.68129c-1.4995.99968-2.4992 2.68099-2.4992 4.58949h.6362c0 2.6355 2.1811 4.8166 4.8167 4.8166 2.6355 0 4.862-2.1357 4.862-4.7712 0-1.7722-.9542-3.31713-2.3628-4.13505zm-2.4538 6.67965c-1.4086 0-2.5447-1.136-2.5447-2.5446s1.1361-2.5446 2.5447-2.5446 2.5446 1.136 2.5446 2.5446-1.136 2.5446-2.5446 2.5446z"/><path d="m21.6748 4.42562c.0909.2272.3181.40896.5908.40896l1.0905.04544c.3635 0 .5907-.31808.4999-.63616l-.6362-2.45377c-.0454-.36352-.4998-.54528-.7725-.31808l-1.0905.86336c-.2272.18176-.3181.49985-.2272.77249z"/></g></svg>