<svg fill="none" height="17" viewBox="0 0 30 17" width="30" xmlns="http://www.w3.org/2000/svg"><g fill="#3e4651"><path d="m23.1 9.73975c-1.6962 0-3.0678 1.40275-3.0678 3.13735 0 1.7347 1.3716 3.1374 3.0678 3.1374s3.0678-1.4027 3.0678-3.1374c0-1.7346-1.3716-3.13735-3.0678-3.13735z"/><path d="m6.87149 9.73975c-1.69618 0-3.06778 1.40275-3.06778 3.13735 0 1.7347 1.3716 3.1374 3.06778 3.1374s3.06779-1.4027 3.06779-3.1374c0-1.7346-1.37161-3.13735-3.06779-3.13735z"/><path d="m27.8741 6.84939c-1.958-.67459-2.6386-.81379-5.1305-1.23139-.4816-.08566-.9423-.2677-1.2564-.64247l-3.9263-3.85478c-.5026-.492553-1.1518-.803077-1.8533-.878031-2.806-.3105243-5.3189-.3212321-8.19818-.042831-.93185.096369-1.77994.588925-2.32439 1.359882l-2.1464 3.0517c-.1047.14991-.25129.25699-.42928.29982l-1.29831.33194c-.80621.21415-1.3506623.9744-1.30878137 1.8096l.21987537 4.16527c.052351.9423.806206 1.6704 1.727586 1.6704h.65963c0-.0107 0-.0107 0-.0214 0-2.4092 1.90558-4.35802 4.26139-4.35802 2.3558 0 4.26136 1.94882 4.26136 4.35802v.0214h7.7061c0-.0107 0-.0107 0-.0214 0-2.4092 1.9056-4.35802 4.2614-4.35802s4.2614 1.94882 4.2614 4.35802v.0214h.5549c.555 0 1.0366-.4176 1.1203-.9744l.3037-2.73043c.1047-1.02794-.5026-2.01305-1.4658-2.33428zm-18.34392-1.7989-3.6227-.05354c-.32458 0-.55493-.34265-.42928-.65317l.73291-1.89527c.18847-.48185.61775-.81379 1.12032-.85662.69104-.06424 1.43442-.10707 2.19875-.12849zm8.60652.11778-7.036-.09637v-3.65133c1.4659-.01071 2.9317.04283 4.1776.17132.3037.03213.5969.17133.8063.4069l2.3034 2.59127c.1989.22486.0419.57821-.2513.57821z"/></g></svg>