<svg fill="none" height="32" viewBox="0 0 32 32" width="32" xmlns="http://www.w3.org/2000/svg"><path d="m17.0311 20.1498c-.2444.2444-.4889.2444-.7333.2444s-.4888-.1222-.7333-.2444l-3.6663-3.5442c-.3667-.3666-.3667-1.0999 0-1.4665.3666-.3667 1.0999-.3667 1.4665 0l2.9331 2.8108 9.6548-9.04364c-.8555-.85549-2.0776-1.58876-3.6664-1.83318-3.6664-.61106-5.9884 2.81087-5.9884 2.81087s-2.1998-3.29972-5.8662-2.68866c-4.88844.73327-6.47719 5.62171-4.76622 10.14361 1.71096 4.644 7.82152 8.1882 9.89912 9.2881.4889.2444.9777.2444 1.4666 0 2.0776-1.0999 8.1882-4.5219 10.0214-9.4103.8554-2.3221.8554-4.6441 0-6.5995z" fill="#3e4651"/></svg>