<svg fill="none" height="38" width="35" xmlns="http://www.w3.org/2000/svg" xmlns:xlink="http://www.w3.org/1999/xlink"><linearGradient id="a" gradientUnits="userSpaceOnUse" x1="17.514" x2="17.514" y1="2.703" y2="34.865"><stop offset=".126" stop-color="#2561ae"/><stop offset=".214" stop-color="#255ca7"/><stop offset=".343" stop-color="#264c93"/><stop offset=".495" stop-color="#283374"/><stop offset=".544" stop-color="#282968"/></linearGradient><path d="m32.927 16.904 1.602-1.605a.701.701 0 0 0 -.492-1.197h-2.08v-2.985a.716.716 0 0 0 -.366-.62c-3.19-1.76-6.129-2.928-8.968-3.562-.056-.014-.099-.014-.155-.014h-.014c-.478-1.478-1.602-2.576-3.163-3.097a.884.884 0 0 0 .24-.606c0-.183-.071-.591-.591-.873a.68.68 0 0 0 -.267-.408.671.671 0 0 0 -.127-.563c-.056-.07-.126-.127-.197-.183l-.154-.564a.709.709 0 0 0 -.675-.506c-.31 0-.59.21-.675.506l-.154.564a.802.802 0 0 0 -.197.183c-.127.169-.169.366-.127.563a.722.722 0 0 0 -.267.408c-.52.282-.59.676-.59.873 0 .141.042.409.295.662-1.49.55-2.572 1.633-3.036 3.041h-.028c-.056 0-.099 0-.155.014-2.896.62-5.834 1.76-8.982 3.492a.716.716 0 0 0 -.366.62v3.055h-2.235a.719.719 0 0 0 -.66.45.725.725 0 0 0 .182.775l1.757 1.62v4.885c0 .267.155.52.408.633l1.35.634c.098.31.196.634.309.972a22.046 22.046 0 0 0 1.603 3.52 23.697 23.697 0 0 0 3.007 4.181 24.557 24.557 0 0 0 3.824 3.464c.66.479 1.363.943 2.15 1.422.704.423 1.463.83 2.264 1.211l.098.042c.099.042.197.07.31.07.112 0 .21-.028.309-.07l.098-.042a37.892 37.892 0 0 0 2.263-1.225 35.215 35.215 0 0 0 2.137-1.422 29.062 29.062 0 0 0 1.996-1.633 22.266 22.266 0 0 0 1.813-1.83 24.774 24.774 0 0 0 3.009-4.182c.436-.775.815-1.55 1.138-2.31.183-.408.338-.816.478-1.21.113-.338.225-.662.324-.986l1.391-.606a.711.711 0 0 0 .422-.647v-2.83a.665.665 0 0 0 -.14-.423.651.651 0 0 0 .098-.366z" fill="#fff"/><path d="m28.416 27.124a23.396 23.396 0 0 1 -2.98 3.942 25.493 25.493 0 0 1 -3.697 3.267c-.66.478-3.444 2.055-4.147 2.407-.703-.352-6.733-4.463-7.872-5.66a23.323 23.323 0 0 1 -2.98-3.956 22.652 22.652 0 0 1 -2.095-4.506c.113.394.24.803.366 1.197.14.394.28.788.45 1.168.323.775.688 1.521 1.096 2.253.83 1.45 1.8 2.816 2.924 4.07 1.11 1.252 2.376 2.365 3.711 3.364.675.493 1.378.958 2.095 1.38.716.423 1.461.817 2.207 1.183l.098.042.098-.042a26.776 26.776 0 0 0 4.287-2.59 23.296 23.296 0 0 0 1.94-1.592 21.092 21.092 0 0 0 1.758-1.788 24.443 24.443 0 0 0 2.924-4.069c.407-.732.773-1.478 1.11-2.239.169-.38.31-.774.464-1.168.14-.395.267-.789.38-1.183a22.963 22.963 0 0 1 -2.137 4.52z" fill="#faad1b"/><path d="m31.578 18.141.632.07v-1.604l1.8-1.803h-2.784v-3.688c-2.333-1.296-5.355-2.732-8.785-3.506 0 .028.014.042.014.07l.253.282.815.535.197 1.267.028.056c3.05.634 5.004 2.098 6.255 3.436v.056c-1.265-1.352-3.697-2.436-6.593-3l-.21-.351-.183-1.14-.675-.437-.407-.465c-.268-1.97-1.673-3.238-3.5-3.618l-.015-.254-.197-.169v-.323c.338-.085.577-.226.577-.38 0-.156-.225-.296-.577-.38v-.339l-.492-.267-.028-.183h.169l.07-.254h-.197l-.28-.971-.282.971h-.154l.07.254h.168l-.028.183-.492.267v.338c-.337.085-.562.225-.562.38s.225.296.562.38v.324l-.196.17-.014.295c-1.715.465-3.065 1.676-3.318 3.59l-.408.465-.674.437-.169 1.14-.253.394c-2.615.55-4.948 1.535-6.565 2.929v-.028c1.547-1.338 3.444-2.788 6.213-3.394l.07-.112.198-1.267.815-.535.253-.282c0-.028.014-.056.014-.085-3.416.76-6.438 2.169-8.786 3.436v3.76h-2.924l1.982 1.83v5.195l1.645.775c1.195 4.083 4.4 10.053 12.947 14.178 8.575-4.125 11.78-10.123 12.96-14.206l1.701-.747v-2.83l-.14-.183c-.197-.267-.366-.465-.52-.662z" fill="url(#a)"/><g fill="#fff"><path d="m27.5 26.871a22.788 22.788 0 0 1 -2.726 3.619 23.7 23.7 0 0 1 -5.272 4.238c-.618.366-1.265.704-1.911 1.028a31.153 31.153 0 0 1 -1.912-1.028c-.647-.38-1.28-.803-1.898-1.24a23.609 23.609 0 0 1 -3.402-2.984 20.172 20.172 0 0 1 -2.727-3.619 20.813 20.813 0 0 1 -1.926-4.125c.099.366.211.732.338 1.098.126.352.267.718.407 1.07.296.704.633 1.394.998 2.056a21.85 21.85 0 0 0 2.671 3.716 22.154 22.154 0 0 0 3.402 3.083c.619.451 1.265.873 1.912 1.268.66.394 1.335.746 2.024 1.084l.084.042.085-.042a34.838 34.838 0 0 0 2.024-1.084c.66-.395 1.293-.817 1.912-1.282.618-.45 1.209-.943 1.771-1.464a22.125 22.125 0 0 0 1.617-1.633 22.424 22.424 0 0 0 2.67-3.717c.38-.662.717-1.352 1.013-2.056.154-.352.28-.704.421-1.056.127-.366.24-.718.352-1.084a19.599 19.599 0 0 1 -1.927 4.111zm-14.998-17.108.085-.676.646-.366.436-.479s.155-2.717 3.135-3.492c0 0-1.813.465-2.39 2.577-.168.591.07 1.253.07 1.253l-.07 1.295s-1.391.127-2.15.437l.239-.55zm5.988-4.967s1.842.14 2.46 1.661c.015 0-.97-1.154-2.46-1.661z"/><path d="m17.098 4.75s-1.209.872-1.054 4.998l.492-.028c-.015 0-.436-3.717.562-4.97zm-5.564 7.046a21.15 21.15 0 0 1 1.884-.352c.295.183.45.268.745.437 0 .972.014 1.169.014 2.14-.281.198-.422.31-.703.536h-1.927c-.014-1.437-.014-1.338-.014-2.76zm1.518.352c-.183.029-.267.043-.45.07 0 .761 0 .944.014 1.705.183 0 .267-.014.45-.014 0-.789 0-.986-.014-1.76zm1.576-.874a24.753 24.753 0 0 1 2.038-.14v.718c-.365.014-.562.014-.928.042v.606c.31-.014.465-.014.774-.028v.563c-.31 0-.464.014-.76.014v.789c.38 0 .577 0 .957-.014v.718h-2.053c-.014-1.62-.028-1.634-.028-3.268zm2.389-.153c.45-.014.66-.014 1.11 0v2.704c.394 0 .591 0 .985.014v.718h-2.082c-.014-1.704-.014-1.732-.014-3.436zm3.907 1.553v-1.352c.436.056.647.085 1.083.155 0 1.563-.014 1.52-.014 3.084h-1.097v-1.351c-.183-.014-.267-.014-.45-.014v1.366h-1.096c0-1.676.014-1.704.014-3.38.436.028.661.042 1.111.099v1.366c.169.014.267.014.45.028zm1.644-1.104c.436.085.66.127 1.097.226v2.76h-1.097c-.014-1.52-.014-1.465 0-2.986z"/><path d="m22.568 11.57s.549.1 1.308.268c.38.085.731.184.731.184l-1.251.52-.788-.971zm-9.91 0s-.549.1-1.308.268c-.38.085-.731.184-.731.184l1.251.52.788-.971zm-4.372 3.826c-.407 1.816-.632 3.674-.984 5.505.577-.211.858-.324 1.434-.507.056-.324.085-.507.14-.873.338-.099.52-.14.858-.225.042.324.07.493.113.774.59-.169.871-.24 1.462-.352-.324-1.436-.605-2.872-.9-4.308zm.717 3.125.253-2.154c.057 0 .085 0 .14-.014l.254 2.028c-.267.056-.394.084-.647.14zm11.557-3.125h-3.094v.746h.83v3.211c.576 0 .871.014 1.448.014v-3.239h.815v-.732zm5.916 0h-1.462l-.042 4.505c.914.254 1.785.535 2.67.86.015-.325.015-.508.03-.902-.521-.169-.774-.24-1.28-.38zm-14.759 0c-.014 1.422-.014 2.83-.028 4.252.59-.099.872-.14 1.462-.17v-1.378c.38-.014.562-.014.942-.028.394-.24.59-.366.984-.591v-1.481c-.394-.24-.59-.352-.984-.591h-2.376v-.014zm1.968 1.915c-.21 0-.323.014-.534.014v-1.155h.534v1.14zm1.868 2.07c.59-.014.886-.014 1.462-.028v-3.957h-1.462c.014 1.324 0 2.647 0 3.985zm7.422-.508c-.337-.028-.492-.042-.829-.056-.042.296-.07.436-.112.704a46.64 46.64 0 0 0 -1.406-.084c.323-1.338.576-2.69.857-4.041h2.067c.351 1.45.604 2.914.956 4.364-.563-.07-.844-.098-1.406-.155-.056-.281-.07-.422-.127-.732zm-.52-2.647c-.084.69-.126 1.07-.21 1.789.252.014.379.014.618.028-.113-.732-.169-1.127-.281-1.817-.042.014-.07.014-.127 0zm7.029 1.451c.014-.55.014-.817.028-1.296.239.014.366.014.604.043 0 .323-.014.506-.014.872.577.07.858.099 1.448.17v-1.226l1.069-.844h-3.571c-.393.267-.59.408-.984.704-.014.62-.028.985-.042 1.703.394.409.59.634.998 1.098.422.141.633.212 1.068.352-.014.578-.014.873-.028 1.38l-.632-.21c.014-.31.014-.48.014-.817-.59-.17-.886-.254-1.462-.409-.014.409-.014.606-.028.972.365.422.548.647.927 1.056.647.253.984.38 1.673.647a4.583 4.583 0 0 0 1.026-.436v-2.21a36.772 36.772 0 0 0 -1.04-1.282c-.422-.113-.632-.169-1.054-.267zm-24.867-2.279h-1.968l1.012.845v5.21c.394.24.59.323.984.45.576-.225.872-.352 1.462-.577.394-.422.59-.634.97-1.07.014-.591.014-.944.028-1.633-.562.126-.843.197-1.406.323-.014.648-.014.972-.014 1.55-.253.084-.38.126-.618.21l.042-4.252c.253-.014.38-.014.633-.028 0 .465-.014.732-.014 1.267.562-.084.843-.112 1.42-.197.013-.577.013-.859.013-1.365-.38-.296-.576-.437-.956-.719l-1.588-.014zm15.31 6.14s.267.126.534.352c0 0 .577-.254.338-1.113.014.422-.296.718-.872.76zm-5.525-.789s.478.422.619.465l-.295.042s.492.366.815.352l-.408.268c0-.015-.604-.493-.73-1.127zm.394 3.507s-.056 1.633.619 2.31c0 0-.647-.578-.914-1.536zm5.635.294s-.182 1.479-.885 2.14c0 0 .773-.478 1.054-1.436z"/></g><path d="m20.84 20.423c-.31-.07-.577.24-.662.338-.084.113-.14.268-.548.423.408.028 1.097-.24 1.153-.338.014.183.014.507-.337 1.028l.309.24c0 .014.59-.705.084-1.69z" fill="#d71921"/><path d="m17.86 26.392c.07.394.9.366 1.195.225.295-.14.394-.55.394-.55s-.043.043-.211.142c-.17.098-.45.112-.45.112s.38-.169.562-.45c.183-.282.113-.493.113-.493s-.155.31-.38.493-.66.253-.66.253.548-.296.702-.507c.155-.211.197-.479.197-.479s-.83.55-.717.465c.112-.084.548-.577.548-.577l-.38-.07-.252.182.014.043a.255.255 0 0 1 -.014.225l-.24.563c-.014.043-.042.07-.07.099zm.31 3.365a1.282 1.282 0 0 1 -.549.113c-.365 0-.717-.014-.886-.183-.28-.254-.407-.578-.407-.578 0 .17-.014.338-.113.451 0 0 .52.296.59.76.057.353 1.42.423 1.52-.084.084-.45.295-.662.492-.676-.07-.169-.085-.45-.085-.45s-.337.506-.562.647z" fill="#fff"/><path d="m20.32 24.127s.014-.789-.576-.986c.014.24-.127.479-.183.563.183-.084-.099.268-.113.395-.028.253-.224.45-.646.464a.751.751 0 0 1 -.155-.042l.492.437c.492-.085.633-.676.633-.718 0-.029.042.056.084.239.014.028.084.634 0 1.07.324-.62.225-1.479.225-1.479-.014-.098-.042-.154-.042-.169-.028-.084.281.226.281.226z" fill="#d71921"/><path d="m16.076 25.016h-.014s.07.085.168.197c.14.155.31.338.38.38.07.057-.281-.183-.52-.338-.113-.07-.211-.14-.211-.14s.014.07.042.169c.028.098.084.21.155.324.154.21.703.506.703.506s-.436-.07-.661-.253-.38-.493-.38-.493-.07.211.113.493c.182.282.562.45.562.45s-.267-.013-.45-.112c-.169-.099-.21-.14-.21-.14s.098.408.393.548c.295.141 1.125.17 1.195-.225l-.351-.338a.252.252 0 0 1 -.07-.099l-.24-.563a.411.411 0 0 1 -.014-.225l.014-.042-.154-.099-.113-.07-.323.056z" fill="#fff"/><path d="m14.135 23.114c-.197.408-.113.76-.802 1.38.043.028.14-.029.183-.029-.337.38-.295.958-.267 1.113.056.014.253-.099.31-.127.056-.028-.127.746.294 1.408.057-.099.113-.099.141-.225l.084.042c.408.24 1.125.986 1.42 1.478.085-.042.183-.098.183-.098s.042.211.183.479c.098.183.435.492.435.492-.042-.31-.21-.887-.168-1.196-.745-.296-1.434-1.085-1.56-1.282.098.057.266.029.295.057a9.118 9.118 0 0 1 -.464-.507c-.225-.282-.464-.62-.52-.901 0 0 .548-.704.562-1.338 0-.282.084-.62.239-.93.098-.196.225-.38.365-.52-.674.197-.913.69-.913.704z" fill="#fff"/><path d="m18.871 24.211c.028.028.056.056.099.056.07 0 .112-.056.126-.112a.541.541 0 0 0 .211-.183c.014.042.014.21-.197.338-.239.155-.422-.057-.422-.057a.237.237 0 0 0 .183-.042z" fill="#d71921"/><path d="m19.096 24.152s0-.014 0 0c0-.056-.014-.084-.056-.112.098-.098.266-.084.266-.084v.014a.658.658 0 0 1 -.21.182z" fill="#fff"/><path d="m16.327 24.212c-.028.028-.056.056-.098.056-.07 0-.113-.056-.127-.113a.54.54 0 0 1 -.21-.183c-.015.043-.015.212.196.338.24.155.422-.056.422-.056a.237.237 0 0 1 -.183-.042z" fill="#d71921"/><path d="m16.1 24.154s0-.014 0 0c0-.055.015-.084.057-.111-.098-.098-.266-.084-.266-.084v.014c.056.07.126.14.21.181zm.198 2.704c0 .141.056.493.408.747-.113-.367.042-.747.042-.747s-.31.043-.45 0zm2.419 0c-.126.043-.45 0-.45 0s.155.38.043.747a.948.948 0 0 0 .407-.747zm-1.813.026s.534-.099.689-.099c.182 0 .59.113.59.113s.085.211.028.324c0 0-.042-.169-.098-.169h-1.181c-.056 0-.099.169-.099.169 0-.099 0-.324.07-.338zm-.295 2.492.295.14c-.042-.056-.225-.464-.183-.746-.225.465-.112.606-.112.606zm1.743 0s.127-.141-.112-.606c.042.282-.155.69-.183.747z" fill="#fff"/><path d="m17.2 27.659.393.718-.056-.732s.422.155.563.662c.126.493.098.605-.408.662-.886 0-.886-.226-.886-.226-.014-.464.394-1.084.394-1.084z" fill="#d71921"/><path d="m17.944 29.5s-.253.042-.464.042c-.268 0-.408-.042-.464-.056a.03.03 0 0 1 -.028-.028c-.014-.043-.057-.155-.014-.268 0 0 .028.14.07.14h.886c.042 0 .084-.126.084-.126.014.056 0 .282-.07.296zm1.8-6.359c-.169.268-.282.577-.282.577.015.338-.098.521-.196.62l-.057.056c-.267.17-.548.127-.562.127 0 0 .337.183.66 0 .155-.084.17-.394.17-.394.365-.282.267-.986.267-.986z" fill="#fff"/><path d="m18.605 21.48c.14.156.196.226.239.38-.577-.478-1.701-.647-2.404.114.337-.817 1.743-.986 2.193-1.014 0 0-1.083-.479-2.418.14l-.337.17c-.085.056-.577-.141-.76-.366-.28-.282-.478-.493-.787-.48-.14.17-.225.522-.197.86.029.338.113.675.296.83.098-.084.295-.239.295-.239s-.253-.225-.323-.634c-.014-.084-.014-.169-.014-.267a.71.71 0 0 1 .028-.17c.014.043.098.114.14.156.127.112.324.211.394.225h.014c.084.028-.253.056-.253.056s.21.282.675.395c.014 0-.366.239-1.167 1.351.112-.112.21-.225.337-.31.14-.098.492-.239.492-.239a.744.744 0 0 1 .323-.183 1.734 1.734 0 0 0 -.35.591c-.198.62 0 1.226-.015 1.282-.028.07.267-.254.267-.254s-.056.155-.084.395c-.042.239-.07.647.098 1.112.028.098.07.197.127.296-.028-.113-.028-.226-.043-.324-.014-.296.043-.845.043-.845.14.225.38.352.688.436l.45-.422c-.07.028-.38.085-.534-.07-.014.042-.028.056-.014.126 0 0-.295-.084-.267-.464-.253-.352-.14-.465.014-.409-.07-.169-.323-.492-.267-1.041 0-.057.014-.127.028-.198 0 0 .014-.056.056-.14a2.056 2.056 0 0 0 -.042.31c.113.717.745 1.224.731 1.14-.014-.085.07-.17-.028-.268.112.014.239.127.38.45.042.085.393.353.393.353v.014l.267.183-.436-.084c-.028 0-.056 0-.084.014l-.183.084.225.042c.028.014.07.028.085.043l.28.281-.35-.155-.1-.028c-.041-.014-.083 0-.126.014l-.168.113h.183c.042 0 .098.014.126.056l.14.14-.028.17c-.014.056-.014.113.015.155l.07.21c.014.043.042.071.07.085l.534.282a.208.208 0 0 0 .183 0l.52-.282c.042-.014.07-.056.07-.084l.07-.211c.015-.057.015-.113.015-.155l-.028-.17.196-.154a.2.2 0 0 1 .085-.028h.168l-.168-.113c-.028-.014-.07-.028-.099-.014l-.45.183.282-.281c.028-.029.056-.043.084-.043l.225-.042-.21-.084c-.015-.015-.029-.015-.057 0l-.45.084.253-.183.281-.042.014-.014v-.014c.028-.043 0-.24.028-.268v.014c.043.014.197-.352.464-.52-.084.112-.07.21-.028.267.45-.183.647-.958.66-1.183 0-.014-.182-.774-1.025-1.112zm-1.265.48c.056-.141.253-.254.253-.254s.196.085.253.253c.66.057.955.423 1.068.662-.056-.084-.703-.436-1.322-.197-.674-.324-1.265.225-1.265.225.211-.704 1.04-.675 1.012-.69zm.253 1.436c-.31-.437-1.027-.31-1.28-.085.38-.591 1.125-.52 1.125-.52l.169-.156s.07.085.14.155c.07-.056.816-.056 1.21.465-.071-.07-.887-.38-1.364.14z" fill="#d71921"/><path d="m16.679 24.255.323.056c-.028-.183-.464-.718-.858-.901 0 0 .127.267.057.295-.07.029-.394-.394-.464-.507 0 0-.014.226.182.451.17.225.464.07.76.606zm1.813.027-.31.043c.057-.184.521-.733.844-.874 0 0-.126.268-.056.296s.38-.38.45-.493c0 0 .028.211-.169.437-.154.197-.464.056-.759.591z" fill="#fff"/><path d="m16.018 24.407-.014-.014-.014-.014c-.098-.085-.267-.282-.253-.676 0 0-.07-.352-.24-.606 0 0-.14.747.24 1.028 0 0-.056.38.267.465 0 0 .225.085.563-.07-.085.014-.38.014-.549-.113zm4.878-1.294c.197.408.112.76.801 1.38-.042.028-.14-.029-.183-.029.338.38.295.958.267 1.113-.056.014-.253-.099-.309-.127s.127.746-.295 1.408c-.056-.099-.113-.099-.14-.225l-.085.042c-.408.24-1.125.985-1.42 1.478-.084-.042-.183-.098-.183-.098s-.042.21-.182.478c-.099.183-.436.493-.436.493.042-.31.21-.887.169-1.197.745-.295 1.433-1.084 1.56-1.28-.098.055-.267.027-.295.055.014-.014.225-.225.464-.506.225-.282.463-.62.52-.902 0 0-.549-.704-.563-1.337 0-.282-.084-.62-.238-.93a2.03 2.03 0 0 0 -.366-.52c.675.197.914.69.914.704zm-9.039-.858s.14.395.113.719c-.029.31-.296.648-.296.648s.45-.268.464-.268.07-.563.07-.578c.015-.014-.309-.535-.309-.535z" fill="#fff"/><path d="m10.268 24.831-.183.057-.14.126s.252.085.393-.098c.028-.028.042-.07.056-.099" fill="#d71921"/><path d="m10.267 24.828-.084-.042.224-.14s.056.056 0 .182c0 0-.056.028-.14 0zm-1.25 1.538c.098-.043.605-.493.562-.465a8.05 8.05 0 0 1 -.59.211c.042-.014.464-.422.464-.422l-.352-.043-.689.212c-.028.112.07.337-.168.633.084.17.421.268.421.268s.296.014.774-.254a.735.735 0 0 1 .197-.281c-.07.042-.717.197-.619.14z" fill="#fff"/><path d="m11.73 21.986c-.267.084-.337.436-.35.55-.015.112.013.267-.24.563.323-.155.731-.662.731-.761.099.14.352.352.197.944l.338-.07c.014-.015.14-.69-.675-1.226z" fill="#d71921"/><path d="m9.002 26.911c.07.127.267.423.69.507-.254-.281-.282-.704-.282-.704s-.267.183-.408.197zm1.968 1.849a.865.865 0 0 1 -.309-.677c.197.268.549.366.549.366s-.099.254-.24.31z" fill="#fff"/><path d="m11.28 26.817-.211.436.014-.464s-.225.14-.225.676c0 .323.098.549.351.662.225-.085.45-.55.45-.55-.309-.225-.38-.76-.38-.76zm-3.177-.862-.098.169.196.281c.112-.098.126-.225.14-.45-.014 0-.084-.014-.238 0z" fill="#d71921"/><path d="m12.49 24.83c-.015.31-.071.874.562 1.338-.24-.239-.45-1.267.014-1.788.239-.267.393-1.042.759-1.408a.205.205 0 0 0 .028-.042c-.633.338-1.153.69-1.125.634.085-.127.408-.76.928-1-.183 0-1.321.38-1.912.971.014-.07-.014-.239.043-.352-.015.014-.914.366-1.49.873 0-.056.056-.183.084-.225-.647.225-1.21 1.056-1.21 1.056s.029.113.043.155c-.028.014-.07.042-.07.042a6.087 6.087 0 0 0 -.998.817l.28-.014.69-.212c.084-.028.548-.168.618-.225.183.352 1.322.55 1.336.535-.31.127-.675.141-.717.127l-.816.408s.914-.38 1.701.07c.352.24.59.465.59.775l.043-.07c-.042-.38-.169-.704-.914-1.084 0 0 .562-.014 1.097.169-.099-.268-.043-.831.056-1.155.183-.577 0-1.14-.24-1.591.184.14.662.633.62 1.197zm-2.151.437c-.549-.127-.942-.028-.998 0l.759-.76.014.225c.21-.338.253-.394.604-.52.056.309.056.675-.38 1.055zm1.335-1.323c-.127.14-.267.492-.225.633-.365.24-.38.986-.38.986-.098-.282-.07-.958 0-1.112.07-.141.731-.634.605-.507z" fill="#d71921"/><path d="m12.785 26.8s.239-.042.59.226c-.112-.141-.197-.719-.197-.719-.59.254-.857-.83-.857-.943 0 0-.211.732.183 1.478 0 0-.24-.239-.774-.352 0 0 .703.775.155.986.323.93-.352 1.24-.352 1.24l.029-.437c-.085.099-.099.45-.535.577-.07.197.07.423.07.423l.099-.127s.323.225.351.254c.127-.127.62-.507.886-.648 0-.127-.014-.564.042-.831.141-.493.464-.62.675-.592-.056-.112-.112-.394-.365-.535zm-3.445-1.531c.029-.394.324-.845.858-1.112-.084.084-.155.169-.14.253 0 0 .562-.62 1.63-.62-1.152.338-1.574.958-1.574.958l-.014-.225z" fill="#fff"/><path d="m9.34 25.269s.268-.183.999 0l-.45.098c-.07-.07-.352-.127-.548-.098zm2.615-.381-.492-.296c-.211.099-.352.38-.38.986-.014-.014.21-.465.872-.69zm.997 2.068s.605.198.745.522c.436.07 1.308.704 1.463 1.07 0 0 0-.718-1.252-1.38 0 0-.59-.296-.73-.873 0 0-.296.436-.479.394-.07-.014-.38.45.127.563-.028-.084.28-.183.126-.296zm10.221-4.702s-.14.394-.112.718c.028.31.295.648.295.648s-.45-.268-.464-.268-.07-.563-.07-.577c-.015-.014.309-.535.309-.535z" fill="#fff"/><path d="m24.762 24.83.182.056.14.126s-.252.085-.393-.098c-.028-.028-.042-.07-.056-.099" fill="#d71921"/><path d="m24.76 24.826.085-.042-.224-.14s-.056.056 0 .182c0 0 .056.028.14 0zm1.252 1.537c-.099-.042-.605-.492-.563-.464.043.028.62.225.591.21-.042-.013-.464-.422-.464-.422l.352-.042.688.211c.029.113-.07.338.17.634-.085.17-.423.268-.423.268s-.295.014-.773-.254a.735.735 0 0 0 -.197-.281c.07.042.717.197.619.14z" fill="#fff"/><path d="m23.3 21.984c.268.084.338.436.352.55.014.112-.014.267.24.563-.324-.155-.732-.662-.732-.761-.098.14-.351.352-.197.944l-.337-.07c-.014-.015-.14-.69.675-1.226z" fill="#d71921"/><path d="m26.026 26.91c-.07.126-.267.422-.689.506.253-.281.282-.704.282-.704s.267.183.407.197zm-1.968 1.847c.099-.07.31-.31.31-.676-.197.268-.549.367-.549.367s.099.253.24.31z" fill="#fff"/><path d="m23.748 26.815.211.436-.014-.464s.225.14.225.676c0 .324-.098.549-.352.662-.225-.085-.45-.55-.45-.55.31-.225.38-.76.38-.76zm3.191-.862.098.169-.197.281c-.112-.098-.126-.225-.14-.45 0 0 .07-.014.239 0z" fill="#d71921"/><path d="m22.54 24.83c.014.31.07.873-.562 1.338.239-.24.45-1.267-.014-1.788-.24-.268-.394-1.042-.76-1.408-.013-.015-.027-.043-.027-.043.632.338 1.152.69 1.124.634-.084-.127-.407-.76-.928-1 .183 0 1.322.38 1.912.972-.014-.07.014-.24-.042-.352.014.014.914.366 1.49.873a.624.624 0 0 0 -.084-.226c.646.226 1.209 1.056 1.209 1.056s-.029.113-.043.155a6.085 6.085 0 0 1 1.068.859l-.28-.014-.69-.211c-.084-.028-.547-.17-.618-.225-.182.352-1.321.549-1.335.535.31.126.675.14.717.126l.815.409s-.914-.38-1.7.07c-.352.24-.591.465-.591.774l-.042-.07c.042-.38.168-.704.913-1.084 0 0-.562-.014-1.096.169.098-.268.042-.83-.056-1.155-.183-.577 0-1.14.239-1.59-.183.14-.661.633-.619 1.196zm2.15.437c.55-.127.943-.029.999 0l-.76-.76-.013.224c-.211-.337-.253-.394-.605-.52-.056.31-.056.675.38 1.056zm-1.335-1.324c.127.14.267.493.225.634.366.239.38.985.38.985.098-.281.07-.957 0-1.112-.07-.14-.731-.634-.605-.507z" fill="#d71921"/><path d="m22.245 26.8s-.24-.042-.59.226c.112-.14.196-.718.196-.718.59.253.858-.831.858-.944 0 0 .21.732-.183 1.479 0 0 .239-.24.773-.352 0 0-.703.774-.154.986-.324.93.351 1.239.351 1.239l-.028-.437c.084.099.098.451.534.578.07.197-.07.422-.07.422l-.098-.126s-.324.225-.352.253a5.575 5.575 0 0 0 -.886-.648c0-.127.014-.563-.042-.83-.14-.494-.464-.62-.675-.592.056-.113.113-.394.366-.535zm3.445-1.533c-.028-.394-.323-.845-.857-1.112.084.084.155.169.14.253 0 0-.562-.62-1.63-.62 1.152.338 1.574.958 1.574.958l.014-.225.76.746z" fill="#fff"/><path d="m25.688 25.267s-.267-.183-1.012 0l.45.098c.084-.07.365-.127.562-.098zm-2.6-.381.492-.296c.211.099.352.38.38.986 0-.014-.225-.465-.872-.69zm-1.012 2.067s-.604.197-.745.521c-.436.07-1.307.704-1.462 1.07 0 0 0-.718 1.251-1.38 0 0 .59-.296.732-.873 0 0 .295.437.478.394.07-.014.38.451-.127.564.028-.085-.267-.183-.127-.296z" fill="#fff"/></svg>