<svg fill="none" viewBox="0 0 158 62" xmlns="http://www.w3.org/2000/svg"><path d="m8.735 19.996c0 1.094-.423 1.964-1.27 2.637-.848.646-1.92 1.038-3.22 1.178-1.525.14-2.683.057-3.502-.28-.254-.112-.31-.28-.17-.561l.735-1.234c.17-.309.424-.421.706-.337.65.168 1.327.224 1.977.168 1.045-.112 1.553-.364 1.553-.757 0-.253-.424-.449-1.299-.617a11.365 11.365 0 0 1 -.96-.253 2.97 2.97 0 0 1 -.79-.393c-.255-.168-.481-.364-.622-.645a1.953 1.953 0 0 1 -.226-.925c0-1.038.395-1.88 1.186-2.497.79-.617 1.864-1.038 3.191-1.235.65-.084 1.271-.14 1.836-.084.565.028.988.113 1.27.225.255.112.311.28.17.56l-.706 1.263c-.17.309-.424.421-.706.365-.565-.112-1.186-.112-1.836-.028-.819.112-1.214.337-1.214.673 0 .14.085.28.282.365.198.112.509.196.96.28.424.084.763.197 1.017.28.254.085.509.225.791.366.282.168.48.364.621.617.142.224.226.533.226.87zm5.338-6.873 2.598-.392c.339-.056.508.056.565.336l1.355 8.528c.028.169 0 .337-.084.45-.085.111-.226.167-.396.195l-2.146.225c-.367.028-.537-.084-.565-.393l-.113-1.01-2.74.309-.508 1.094c-.14.308-.367.477-.677.505l-2.231.224c-.17.028-.283-.028-.34-.112-.056-.112-.056-.224.057-.42l4.575-9.006c.141-.308.34-.477.65-.533zm-.593 5.751 1.75-.224-.282-2.75h-.056zm11.465 2.637-2.541.28c-.339.029-.509-.084-.565-.392l-1.27-8.696c-.029-.169 0-.337.084-.45a.553.553 0 0 1 .367-.224l2.175-.336c.367-.056.564.056.593.364l.282 4.068.057 2.272h.056l.875-2.384 1.808-4.433c.113-.336.339-.533.678-.589l2.259-.364c.17-.028.282 0 .339.112.056.112.056.252-.028.449l-4.519 9.762c-.085.168-.17.309-.282.393-.057.112-.198.168-.367.168zm11.466-5.386-3.247.42-.255 1.403 3.502-.448c.367-.056.509.112.452.477l-.282 1.655c-.057.364-.254.56-.593.617l-6.1.701c-.367.028-.509-.112-.452-.477l1.638-9.538c.056-.364.254-.56.565-.617l6.015-.982c.367-.056.508.084.452.477l-.283 1.683c-.056.365-.254.59-.593.646l-3.473.533-.226 1.262 3.191-.477c.367-.056.508.112.452.477l-.254 1.57c.028.366-.17.562-.509.618zm9.715 3.142c-2.542.308-3.812-.617-3.812-2.777 0-.337.028-.674.084-1.066l1.073-6.452c.057-.393.255-.618.565-.646l2.09-.364c.367-.056.508.112.452.476l-.989 6.2c-.028.225-.056.449-.056.673 0 .337.056.59.226.73.141.14.367.196.678.14.395-.056.706-.224.932-.533.226-.28.367-.73.48-1.346l.988-6.284c.057-.393.254-.617.565-.674l2.09-.364c.367-.056.508.112.452.505l-1.073 6.704c-.255 1.543-.763 2.75-1.525 3.563-.735.842-1.836 1.347-3.22 1.515zm8.162-1.178-2.062.252c-.367.056-.508-.14-.452-.533l1.666-10.548c.057-.392.255-.645.565-.7l3.474-.618c1.27-.225 2.23-.14 2.88.28.65.421.989 1.207.989 2.385 0 .28-.028.617-.085 1.038-.226 1.599-.734 2.777-1.525 3.563-.79.785-1.892 1.29-3.332 1.486l-1.158.169-.395 2.524c-.029.225-.085.393-.17.505-.085.113-.198.169-.395.197zm1.44-6.228.96-.14c.452-.056.763-.225.989-.45.226-.252.367-.588.451-1.093.029-.169.057-.309.057-.449 0-.309-.085-.533-.254-.617-.17-.112-.424-.14-.82-.084l-.988.168zm6.608-4.124.311-2.076c.056-.42.254-.645.565-.7l6.806-1.235c.367-.056.508.112.452.533l-.311 2.16c-.056.42-.282.673-.593.73l-1.864.308-1.242 8.443c-.057.42-.255.645-.594.701l-2.09.28c-.367.057-.508-.14-.451-.56l1.242-8.332-1.835.308c-.311.028-.48-.14-.396-.56zm13.612-5.33c1.271-.224 2.26-.028 2.966.617.706.646 1.073 1.796 1.045 3.45 0 .59-.057 1.207-.142 1.88-.649 4.489-2.485 6.93-5.506 7.35-1.271.168-2.26-.084-2.966-.757s-1.073-1.767-1.045-3.338c0-.59.057-1.179.142-1.824.677-4.348 2.485-6.817 5.507-7.378zm-1.27 9.93c.508-.083.932-.392 1.242-.925.31-.56.565-1.403.734-2.58.085-.618.114-1.095.114-1.431 0-1.207-.368-1.74-1.158-1.6-.509.085-.932.421-1.243.954-.31.561-.565 1.403-.734 2.553a10.09 10.09 0 0 0 -.113 1.403c0 1.206.367 1.74 1.158 1.627zm-65.802 15.121c.198.169.34.421.452.702l1.582-.113-.254 1.122-1.215.085a3.187 3.187 0 0 1 -.847 1.963 4.466 4.466 0 0 1 -2.005 1.207l1.694 3.198-2.428.084-1.554-2.89-2.824.14.396-1.655 2.626-.14c.763-.056 1.356-.196 1.807-.505a1.73 1.73 0 0 0 .82-1.206l-5.536.365.254-1.066 5.14-.365c-.282-.449-.875-.645-1.75-.59l-3.22.17.254-1.067 9.065-.757-.254 1.122zm9.546 7.883c-1.327.056-2.457-.14-3.36-.561-.283-.14-.34-.337-.17-.645l.678-1.178c.197-.337.423-.421.734-.309a5.258 5.258 0 0 0 2.23.337c.51-.028.933-.14 1.272-.365.339-.224.48-.533.48-.982 0-.56-.396-.813-1.158-.757a4.344 4.344 0 0 0 -1.017.196c-.339.112-.564.168-.65.168-.056 0-.169 0-.282-.056l-1.045-.224c-.197-.028-.282-.197-.226-.42.142-.506.34-1.291.622-2.357s.423-1.768.48-2.076c.056-.393.282-.59.621-.617l5.733-.533c.367-.028.508.112.452.477l-.254 1.402c-.057.337-.254.533-.622.561l-3.812.309c-.085.449-.226.898-.367 1.374.452-.14.904-.224 1.412-.28 1.073-.084 1.864.084 2.4.505.509.42.791 1.01.791 1.739 0 1.403-.452 2.44-1.384 3.142-.932.73-2.118 1.094-3.558 1.15zm11.381-11.137c1.13-.112 2.033.14 2.711.73.65.617.989 1.57.989 2.86 0 .45-.057.955-.142 1.516-.31 1.823-.903 3.198-1.807 4.152-.904.925-2.005 1.43-3.332 1.486-1.13.056-2.034-.224-2.712-.841-.65-.617-.988-1.543-.988-2.777 0-.393.056-.87.141-1.46.31-1.767.904-3.113 1.808-4.067.903-.926 2.005-1.487 3.332-1.599zm-1.243 8.08c.424-.029.763-.253 1.045-.702.283-.449.48-1.15.65-2.104.085-.533.141-.954.141-1.29 0-.926-.31-1.375-.932-1.319-.423.028-.762.28-1.017.73-.254.448-.48 1.122-.65 2.075-.084.505-.14.954-.14 1.319 0 .898.31 1.346.903 1.29zm7.767 2.019-1.469 2.048a.608.608 0 0 1 -.423.28l-.622.029c-.113 0-.198-.029-.226-.113s0-.196.057-.336l1.016-1.712-.536.029c-.34.028-.48-.14-.424-.477l.31-1.852c.057-.336.255-.505.594-.533l1.78-.112c.366-.028.536.14.48.477l-.283 1.655a2.03 2.03 0 0 1 -.254.617zm7.313-11.501c1.13-.113 2.034.14 2.712.785.65.645.989 1.655.989 3.058 0 .477-.057 1.01-.142 1.599-.31 1.936-.932 3.422-1.807 4.432-.904 1.01-2.005 1.543-3.333 1.6-1.13.055-2.033-.253-2.71-.899-.65-.645-.99-1.627-.99-2.973 0-.42.057-.926.142-1.543.31-1.88.904-3.338 1.808-4.348.903-.982 2.005-1.571 3.332-1.711zm-1.242 8.64c.424-.028.763-.28 1.045-.758.283-.476.48-1.206.65-2.244.084-.56.141-1.01.141-1.374 0-1.01-.31-1.46-.932-1.403-.424.028-.763.28-1.017.758-.254.476-.48 1.206-.65 2.216-.084.533-.14 1.01-.14 1.402-.029.982.282 1.459.903 1.403zm11.099-9.678c1.13-.113 2.033.14 2.711.813.65.673.988 1.74.988 3.198 0 .505-.056 1.066-.14 1.683-.311 2.02-.933 3.563-1.808 4.629-.904 1.038-2.005 1.599-3.333 1.683-1.13.056-2.033-.252-2.71-.926-.65-.673-.99-1.71-.99-3.085 0-.421.057-.982.142-1.627.31-1.964.904-3.479 1.807-4.545.876-1.066 2.005-1.683 3.333-1.823zm-1.271 9.033c.424-.029.763-.281 1.045-.786s.48-1.262.65-2.328c.084-.59.14-1.066.14-1.459 0-1.038-.31-1.543-.931-1.487-.424.028-.763.309-1.017.814s-.48 1.262-.65 2.328c-.084.561-.14 1.066-.14 1.459 0 1.01.31 1.487.903 1.459zm11.099-10.127c1.13-.14 2.033.14 2.71.841.65.701.99 1.796.99 3.338 0 .505-.057 1.095-.142 1.74-.31 2.104-.932 3.73-1.835 4.825-.904 1.094-2.006 1.683-3.333 1.767-1.13.056-2.033-.252-2.711-.954-.65-.701-.988-1.767-.988-3.226 0-.449.056-1.01.14-1.683.311-2.048.933-3.647 1.808-4.74.932-1.123 2.034-1.768 3.36-1.908zm-1.243 9.425c.424-.028.763-.308 1.045-.813s.48-1.319.65-2.44c.084-.618.14-1.123.14-1.516 0-1.094-.31-1.599-.931-1.543-.424.056-.763.309-1.017.842-.254.505-.48 1.319-.65 2.413-.084.589-.14 1.094-.14 1.514-.029 1.066.282 1.571.903 1.543zm7.541-6.676c-.085.084-.226.14-.396.168s-.31 0-.367-.084c-.056-.084-.085-.197-.056-.393.028-.14.084-.308.169-.56.113-.253.17-.422.198-.506-.057.056-.17.197-.34.393-.169.224-.31.365-.395.42-.113.085-.197.113-.282.141-.141.028-.226-.084-.31-.309-.029-.112-.057-.196-.057-.28 0-.197.113-.365.31-.505.085-.084.255-.14.452-.224.226-.085.367-.14.424-.169-.056-.028-.198-.056-.395-.084-.198-.028-.34-.056-.424-.112-.141-.084-.198-.197-.198-.309s.057-.252.17-.42c.141-.253.282-.365.423-.393.085 0 .17.028.254.084.085.056.17.168.283.364.113.197.17.31.226.337 0-.084 0-.252-.028-.477-.029-.224-.029-.42-.029-.533.029-.196.085-.336.17-.42.085-.085.198-.14.395-.169.17-.028.31 0 .367.084s.085.197.057.393c-.028.14-.085.337-.17.59-.113.252-.17.42-.197.504.056-.056.197-.196.367-.42.17-.225.31-.365.395-.422a.874.874 0 0 1 .283-.14c.14-.028.225.084.31.309a.988.988 0 0 1 .057.28c0 .169-.113.337-.31.505-.086.084-.255.14-.453.225-.226.084-.367.14-.423.168.056.028.197.056.395.084s.339.056.424.112a.366.366 0 0 1 .197.337c0 .112-.056.253-.14.42-.142.253-.283.365-.424.394a.458.458 0 0 1 -.255-.085c-.084-.056-.17-.168-.282-.364-.113-.197-.17-.309-.226-.337 0 .084 0 .253.056.477.029.224.057.42.029.533-.113.168-.17.309-.254.393zm13.103-4.853 1.78-.225c.395-.056.592.112.592.505l.142 4.433.028 3.001h.056l.876-3.114 1.355-4.6c.113-.421.34-.646.678-.702l2.203-.28c.17-.028.282.028.367.168.056.14.056.337-.028.59l-4.095 12.285c-.141.421-.367.617-.678.645l-2.203.169c-.339.028-.536-.169-.565-.533l-.254-4.236-.084-2.3h-.057l-.734 2.384-1.469 4.348c-.14.393-.367.617-.677.617l-2.203.169c-.34.028-.537-.14-.565-.533l-.734-11.277c-.028-.505.113-.786.452-.814l2.118-.252c.367-.057.564.14.593.532l.056 4.32.028 2.946h.057l.875-3.03 1.412-4.544c.142-.42.368-.645.678-.673zm7.428 11.726 1.694-12.203c.056-.449.254-.701.565-.758l2.09-.28c.367-.056.508.14.451.56l-1.694 12.4c-.056.477-.254.701-.593.73l-2.09.168c-.367.056-.508-.168-.423-.617zm5.591-10.38.311-2.356c.056-.477.254-.73.565-.758l6.806-.897c.367-.056.508.168.452.645l-.311 2.412c-.056.477-.282.758-.621.786l-1.864.224-1.271 9.51c-.056.477-.254.73-.593.758l-2.09.168c-.367.028-.508-.197-.452-.673l1.271-9.426-1.836.224c-.282.056-.423-.14-.367-.617zm12.963 8.808.593-4.628-2.316.252-.593 4.6c-.056.478-.254.758-.593.786l-2.09.169c-.367.028-.508-.197-.452-.674l1.695-12.792c.056-.476.254-.757.565-.785l2.089-.28c.367-.057.509.168.452.673l-.593 4.432 2.316-.28.593-4.46c.056-.506.254-.758.565-.814l2.09-.28c.367-.057.508.167.451.672l-1.694 13.185c-.057.505-.254.758-.593.786l-2.09.196c-.311-.056-.48-.28-.395-.758zm-103.362 9.931 2.57-.056c.31 0 .509.14.565.421l1.356 8.332a.525.525 0 0 1 -.085.42c-.085.113-.226.14-.395.14l-2.147-.055c-.367 0-.536-.169-.565-.45l-.113-1.009-2.739-.084-.508.982c-.141.28-.367.42-.678.392l-2.231-.084c-.17 0-.282-.056-.339-.168-.056-.112-.056-.224.057-.393l4.575-7.967c.169-.28.395-.42.677-.42zm-.593 5.415 1.723.028-.282-2.665h-.057zm11.523 1.654c.48 0 .96-.084 1.468-.252.198-.084.367-.084.452-.056.113.028.17.14.226.28l.367 1.263c.056.14.056.28-.028.364a.819.819 0 0 1 -.367.281c-.876.477-1.864.701-2.966.673-1.299-.028-2.344-.364-3.106-1.01-.763-.617-1.13-1.542-1.13-2.72 0-.393.057-.814.142-1.263.62-3.254 2.485-4.91 5.62-4.993a6.647 6.647 0 0 1 1.722.168c.537.14.932.309 1.214.505.142.112.226.196.255.28.028.084 0 .225-.113.393l-.82 1.234c-.112.169-.225.28-.338.309-.113.028-.254 0-.452-.084a2.879 2.879 0 0 0 -1.327-.225c-.791 0-1.384.197-1.78.562-.395.364-.677.981-.847 1.879-.056.393-.113.701-.113.87 0 .56.141.953.452 1.178.339.224.82.337 1.469.364zm7.822-4.151 2.542-2.918c.254-.308.537-.477.79-.505l2.345-.056c.17 0 .282.056.31.196s-.028.281-.17.45l-3.67 4.207 2.146 4.825c.085.169.085.309 0 .45-.085.14-.198.195-.367.195l-2.147-.056c-.31 0-.536-.168-.677-.477l-1.61-3.646-.65 3.562c-.056.337-.254.505-.593.505l-2.09-.056c-.367 0-.508-.168-.451-.505l1.61-8.893c.056-.336.253-.504.564-.532l2.09-.057c.367 0 .508.169.452.505zm11.325-3.815c1.27-.056 2.259.252 2.965.897.706.646 1.073 1.655 1.073 3.03 0 .505-.056 1.01-.141 1.571-.621 3.703-2.457 5.526-5.479 5.47-1.27-.028-2.259-.364-2.965-1.01-.706-.645-1.073-1.627-1.073-2.917 0-.477.056-.982.141-1.515.65-3.619 2.457-5.442 5.479-5.526zm-1.271 8.163c.508 0 .932-.196 1.242-.617.311-.42.565-1.122.735-2.076.085-.505.113-.898.113-1.178 0-1.01-.396-1.515-1.158-1.487-.508 0-.932.224-1.243.645-.31.42-.565 1.122-.734 2.048a7.276 7.276 0 0 0 -.113 1.178c0 .982.395 1.487 1.158 1.487zm15.081 0c.48 0 .96-.112 1.468-.337.198-.084.367-.112.452-.084.113.028.17.14.226.337l.367 1.459a.527.527 0 0 1 -.028.42c-.057.112-.17.225-.367.337-.876.561-1.864.842-2.994.842-1.299-.029-2.344-.393-3.106-1.094-.763-.73-1.13-1.768-1.13-3.17 0-.45.057-.954.141-1.487.622-3.843 2.514-5.807 5.62-5.947a5.616 5.616 0 0 1 1.723.168c.537.14.932.337 1.214.56.142.113.226.225.254.338.029.112 0 .252-.112.448l-.82 1.46c-.112.195-.225.308-.338.364-.113.028-.255.028-.452-.084-.396-.197-.82-.28-1.328-.253-.79.028-1.383.253-1.779.673-.395.421-.678 1.179-.847 2.217-.056.476-.113.813-.113 1.038 0 .645.141 1.094.452 1.374.367.28.847.42 1.497.42zm8.331-8.837 2.57-.112c.338-.028.508.168.564.505l1.3 10.632c.028.225 0 .393-.085.533s-.226.197-.396.197h-2.146c-.367 0-.537-.197-.565-.562l-.113-1.29h-2.74l-.507 1.262c-.142.365-.368.533-.678.533l-2.231-.028c-.17 0-.283-.056-.34-.196-.056-.14-.056-.309.057-.505l4.604-10.436c.169-.336.395-.533.706-.533zm-.622 6.958 1.723-.028-.282-3.423h-.057l-1.384 3.45zm8.247-7.322 3.53-.169c2.626-.14 3.925.926 3.925 3.227 0 .336-.028.7-.084 1.122-.255 1.739-1.045 2.973-2.4 3.703l1.185 3.45c.085.224.085.42 0 .561-.056.14-.198.225-.367.225h-1.977c-.339 0-.565-.169-.678-.505l-1.016-3.114-.847.028-.452 2.973c-.057.421-.254.618-.565.618h-2.033c-.368 0-.509-.197-.452-.618l1.666-10.856c.028-.42.226-.617.565-.645zm1.75 5.554 1.046-.028c.451 0 .79-.112 1.016-.336.226-.197.367-.533.452-.982.028-.112.028-.253.028-.421 0-.337-.084-.561-.254-.673s-.452-.169-.847-.169l-1.045.028-.395 2.581zm9.771 5.891 1.667-11.473c.057-.45.254-.674.565-.674l2.09-.112c.367-.028.508.169.452.561l-1.695 11.67c-.056.449-.254.645-.593.645h-2.09c-.31.028-.452-.196-.395-.617zm14.997-12.231-1.695 12.091c-.056.449-.254.673-.593.701l-1.977.028c-.282 0-.48-.14-.593-.392l-1.666-5.92-.819 5.667c-.056.449-.254.674-.593.674l-1.977.027c-.367 0-.508-.224-.451-.645l1.666-11.698c.056-.449.254-.673.564-.701l2.006-.112c.31-.028.508.112.593.364l1.694 5.892.82-5.78c.056-.448.253-.7.564-.7l1.977-.113c.395-.056.536.168.48.617zm7.879 7.855c0 1.627-.452 2.861-1.299 3.731s-1.92 1.319-3.22 1.319c-1.496.027-2.682-.281-3.501-.898-.255-.197-.311-.477-.142-.842l.763-1.767c.198-.449.424-.59.706-.42.65.364 1.3.532 1.949.532 1.044-.028 1.553-.337 1.581-.926 0-.364-.424-.729-1.27-1.122-.368-.168-.707-.336-.96-.533-.283-.168-.537-.42-.792-.701-.254-.28-.451-.645-.593-1.066-.14-.42-.197-.898-.197-1.459 0-1.599.423-2.777 1.214-3.59.79-.814 1.864-1.263 3.191-1.347.65-.056 1.271 0 1.808.14.564.14.988.337 1.27.533.255.197.311.477.142.87l-.706 1.767c-.17.42-.424.561-.706.449-.565-.252-1.186-.337-1.836-.309-.82.056-1.214.309-1.214.842 0 .224.084.42.282.59.198.167.508.364.96.588.424.197.763.393 1.017.561.254.169.508.393.79.674.283.28.48.617.622 1.01.085.392.141.841.141 1.374zm4.886 4.909c-2.542.056-3.813-1.29-3.785-4.04 0-.42.029-.87.085-1.346l1.102-8.023c.056-.477.254-.73.564-.757l2.09-.14c.367-.029.509.196.452.672l-1.017 7.715c-.028.28-.056.561-.056.842 0 .449.056.757.198.953.141.197.367.28.677.28.396 0 .706-.195.932-.532s.367-.87.48-1.627l1.017-7.77c.057-.478.254-.73.593-.758l2.09-.14c.367-.029.508.196.452.7l-1.102 8.277c-.254 1.908-.762 3.339-1.553 4.264-.762.926-1.835 1.403-3.219 1.431zm7.907-14.84 3.53-.252c2.627-.196 3.926 1.066 3.897 3.759 0 .393-.028.842-.084 1.318-.254 2.076-1.073 3.563-2.401 4.46l1.186 4.068c.085.253.085.477 0 .674a.358.358 0 0 1 -.367.28l-1.977.056c-.338 0-.564-.196-.677-.589l-.989-3.703-.847.028-.48 3.563c-.057.505-.254.757-.565.757l-2.062.056c-.367 0-.508-.224-.451-.729l1.694-13.016c.085-.45.282-.702.593-.73zm1.751 6.593 1.045-.056c.452-.028.791-.169 1.017-.421.226-.253.367-.645.451-1.178.029-.113.029-.28.029-.505 0-.393-.085-.674-.254-.814-.17-.14-.452-.196-.848-.168l-1.045.056zm10.477-7.547 2.57-.196c.339-.028.509.197.565.645l1.271 13.578c.028.28 0 .505-.085.673a.426.426 0 0 1 -.395.253l-2.147.056c-.367 0-.536-.225-.564-.702l-.113-1.655-2.74.112-.508 1.656c-.141.477-.367.7-.706.729l-2.231.056c-.17 0-.282-.084-.339-.252-.056-.169-.056-.393.057-.646l4.659-13.577c.198-.449.424-.702.706-.73zm-.649 8.977 1.722-.084-.254-4.376h-.056zm16.351-9.481-1.722 14.306c-.085.534-.283.814-.594.842l-2.005.084c-.282 0-.48-.14-.593-.477l-1.638-6.957-.819 6.733c-.084.533-.254.813-.593.813l-1.977.056c-.367 0-.508-.252-.423-.757l1.723-13.914c.056-.533.254-.814.593-.842l2.005-.168c.31-.028.508.112.593.42l1.666 6.93.819-6.845c.056-.533.254-.813.565-.842l1.977-.168c.339 0 .48.253.423.786zm5.281 10.828c.48-.028.96-.196 1.469-.533.197-.14.367-.169.48-.14.113.056.169.196.226.448l.367 2.048c.056.253.028.45-.028.617-.057.169-.17.337-.368.505-.875.87-1.863 1.319-2.993 1.347-1.299.056-2.344-.42-3.078-1.403-.763-.982-1.13-2.496-1.102-4.488 0-.645.057-1.375.141-2.132.678-5.527 2.57-8.444 5.677-8.725.621-.056 1.214 0 1.723.197.536.196.932.449 1.214.757.141.168.226.309.254.45.028.14-.028.364-.113.644l-.847 2.104c-.113.28-.226.45-.339.533-.113.056-.254.028-.452-.084-.367-.252-.819-.337-1.327-.309-.791.057-1.384.421-1.779 1.038-.396.646-.678 1.712-.876 3.198a12.36 12.36 0 0 0 -.113 1.487c0 .926.141 1.571.424 1.936.339.365.791.533 1.44.505zm10.562-2.861-3.247.224-.254 2.188 3.501-.196c.368-.028.509.252.452.813l-.282 2.553c-.085.561-.283.87-.593.87l-6.072.28c-.367.028-.508-.252-.424-.813l1.723-14.784c.057-.561.254-.87.593-.898l5.987-.56c.367-.029.509.224.452.813l-.282 2.58c-.057.562-.254.87-.593.898l-3.446.28-.226 1.965 3.192-.253c.367-.028.508.252.423.813l-.282 2.385c-.113.533-.311.813-.622.842zm-154.787-31.133 32.928-7.66-1.158-1.57zm-1.328 45.781 74.104 4.825-1.299 1.684-72.805-6.51z" fill="#fff"/></svg>