<svg fill="none" height="10" viewBox="0 0 9 10" width="9" xmlns="http://www.w3.org/2000/svg"><path d="m3.78841 1.38508c.29758-.579228 1.1256-.57923 1.42318 0l.75888 1.47715c.11616.22611.33286.38355.58379.42415l1.63937.26528c.64284.10403.89871.89151.43978 1.35352l-1.17034 1.17821c-.17914.18034-.26192.43509-.22299.68629l.25429 1.6411c.09972.64352-.57016 1.13021-1.15137.83652l-1.4822-.74898c-.22687-.11464-.49473-.11464-.7216 0l-1.4822.74898c-.58121.29369-1.25109-.193-1.15137-.83652l.25429-1.6411c.03893-.2512-.04385-.50595-.22299-.68629l-1.170342-1.17821c-.4589236-.46201-.203055-1.24949.439783-1.35352l1.639359-.26528c.25094-.0406.46764-.19804.5838-.42415z" fill="#ff9100"/></svg>