<svg fill="none" height="26" viewBox="0 0 30 26" width="30" xmlns="http://www.w3.org/2000/svg"><g stroke="#434f5a" stroke-miterlimit="10" stroke-width="1.5"><path d="m1.5 25.7716v-6.8839c0-.8755.34779-1.7152.96686-2.3342.61907-.6191 1.45872-.9669 2.33422-.9669.4338-.0004.86344.0846 1.26435.2503.4009.1657.76517.4088 1.07208.7153.3069.3066.55039.6707.7165 1.0714.16611.4008.25163.8303.25163 1.2641v6.8839"/><path d="m21.8945 25.7716v-6.8839c0-.4338.0855-.8633.2517-1.2641.1661-.4007.4096-.7648.7165-1.0714.3069-.3065.6711-.5496 1.072-.7153.401-.1657.8306-.2507 1.2644-.2503.8755 0 1.7152.3478 2.3343.9669.619.619.9668 1.4587.9668 2.3342v6.8839"/><path d="m11.6885 25.7706v-8.8006c-.0005-.4338.0846-.8634.2502-1.2643.1657-.4009.4088-.7652.7154-1.0721.3065-.3069.6706-.5504 1.0714-.7165.4007-.1661.8303-.2516 1.2641-.2516.8764 0 1.7169.3481 2.3366.9678.6198.6198.9679 1.4603.9679 2.3367v8.8006"/><path d="m4.70725 13.3875c1.44852 0 2.62278-1.1743 2.62278-2.6228 0-1.44854-1.17426-2.62279-2.62278-2.62279s-2.62278 1.17425-2.62278 2.62279c0 1.4485 1.17426 2.6228 2.62278 2.6228z" fill="#fff"/><path d="m25.1955 13.3875c1.4486 0 2.6228-1.1743 2.6228-2.6228 0-1.44854-1.1742-2.62279-2.6228-2.62279-1.4485 0-2.6227 1.17425-2.6227 2.62279 0 1.4485 1.1742 2.6228 2.6227 2.6228z" fill="#fff"/></g><path d="m21.2263 5.03495c.9529 0 1.7253-.77246 1.7253-1.72533s-.7724-1.72533-1.7253-1.72533-1.7253.77246-1.7253 1.72533.7724 1.72533 1.7253 1.72533z" fill="#434f5a"/><path d="m9.77875 5.45026c.66475 0 1.20355-.53885 1.20355-1.20355 0-.66471-.5388-1.20356-1.20355-1.20356-.6647 0-1.20355.53885-1.20355 1.20356 0 .6647.53885 1.20355 1.20355 1.20355z" fill="#434f5a"/><path d="m6.10178 3.31073c.33235 0 .60177-.26942.60177-.60178 0-.33235-.26942-.60177-.60177-.60177-.33236 0-.60178.26942-.60178.60177 0 .33236.26942.60178.60178.60178z" fill="#434f5a"/><path d="m14.9895 1.82856c.3323 0 .6018-.26943.6018-.60178 0-.332355-.2695-.60178-.6018-.60178-.3324 0-.6018.269425-.6018.60178 0 .33235.2694.60178.6018.60178z" fill="#434f5a"/><path d="m14.9895 11.2615c1.4485 0 2.6228-1.1742 2.6228-2.62273 0-1.44852-1.1743-2.62278-2.6228-2.62278s-2.6228 1.17426-2.6228 2.62278c0 1.44853 1.1743 2.62273 2.6228 2.62273z" fill="#fff" stroke="#434f5a" stroke-miterlimit="10" stroke-width="1.5"/></svg>