<svg fill="none" height="28" viewBox="0 0 28 28" width="28" xmlns="http://www.w3.org/2000/svg"><path d="m5.77833 10.5848h-.19628c-.89725-.0279-1.76885-.306-2.51639-.80299-.74755-.49698-1.34129-1.19304-1.7142-2.00959-.31365-.68593-.463413-1.43542-.437444-2.18921.025968-.75379.226974-1.49122.587074-2.15394.41597-.76319 1.02992-1.40015 1.7773-1.84389.74739-.44374 1.60056-.677865 2.46975-.677709h.16746c1.20538.025502 2.35389.517579 3.20383 1.372679.07182.07186.12819.15762.16572.25203s.0554.19548.05252.29704c-.00204.10033-.02407.19924-.06485.29093-.04078.0917-.09948.17433-.17262.24304l-1.04322.97324 1.59916.05489c.17625.00605.34476.07406.47576.19206.1311.118.2163.27845.2408.45311.0441.31826.0606.63975.0494.96087-.0494 1.41111-.59849 2.64377-1.54838 3.47835l-.03294.02882c-.85623.71907-1.94459 1.10247-3.06245 1.07897zm-1.63072-4.34997c.09501.34203.29533.64545.57253.8672.27719.22176.61718.35059.97173.36821h.08234c.22258.00238.44382-.03481.65339-.10983l-.73298-.02607c-.09844-.00319-.19531-.02576-.28503-.0664-.08971-.04065-.17052-.09858-.23784-.17048-.06731-.0719-.11977-.15635-.15442-.24855-.03465-.09219-.05079-.19032-.04749-.28876l.05489-1.57445c.00676-.19435.08867-.3785.22846-.51368.13979-.13519.32656-.21086.52102-.2111h.02607l.83322.02745c-.23932-.1662-.52265-.25745-.81398-.26217h-.06726c-.34457.00583-.67922.11637-.95947.31693-.28024.20056-.49281.48164-.60949.80591-.12605.33674-.14287.70464-.04806 1.05147z" fill="#fff"/><path d="m5.74791 1.65427h.13727c1.01522.02284 1.98224.43748 2.69866 1.15716l-1.20792 1.12835c-.40796-.41704-.96371-.65669-1.54701-.66712h-.081c-.49734.00609-.98106.16339-1.38685.45099-.40579.28761-.71444.69191-.88493 1.15915-.18821.50179-.207 1.05137-.05352 1.56484.14229.49082.43447.92488.83567 1.2414.4012.31653.89134.49971 1.40179.52387h.10842c.45521.01002.90399-.10895 1.29445-.34317.21778-.13372.40618-.3102.55387-.51875.14768-.20856.2516-.44488.30543-.6947l-2.20727-.07686.05352-1.5731 3.85585.13727c.03819.27599.05244.55478.04256.83322-.04392 1.24364-.52438 2.27864-1.3219 2.96498-.72083.60101-1.63553.91958-2.57376.89636-.05628 0-.11256 0-.17021 0-.75775-.02549-1.49346-.26122-2.12494-.68083-.63147-.41961-1.13384-1.00658-1.45089-1.69528-.2661-.57967-.39324-1.21343-.37132-1.85088.02193-.63746.19233-1.26101.49763-1.82103.35179-.64468.8708-1.18264 1.50247-1.55729.63167-.37466 1.35264-.57216 2.08706-.57173zm-.00687-1.493469c-1.00391-.000394-1.98936.269786-2.85269.782133-.86333.512346-1.57263 1.247916-2.053246 2.129306-.415851.76536-.647941 1.61697-.677959 2.48748-.030018.87052.142859 1.73609.505001 2.52828.430804.94346 1.116834 1.74767 1.980594 2.3218.86375.5742 1.87084.8953 2.90751.9273h.22099c1.29776.0245 2.56026-.4233 3.5525-1.2601l.04802-.0439c1.09814-.9705 1.73644-2.39123 1.79274-4.00686.0128-.36699-.006-.73439-.0563-1.09814-.0457-.32388-.196-.62396-.4279-.85462-.2319-.23067-.5328-.37931-.85693-.42333.16278-.23964.25203-.52161.25673-.81126.0039-.2009-.0327-.40054-.10743-.58706-.07475-.18651-.18621-.35611-.32775-.49873-.98605-.994753-2.31962-1.568054-3.71993-1.599169-.06177 0-.12218 0-.18395 0z" fill="#434f5a"/><path d="m18.5645 11.075 4.35.0769c2.0508.0371 2.8579 2.6767 1.1763 3.8545l-3.5689 2.4941c-.3662.2568-.6418.6227-.7875 1.0455s-.154.8808-.0238 1.3087l1.2711 4.1605c.5999 1.963-1.6623 3.5456-3.2944 2.3102l-3.4742-2.619c-.3574-.269-.7907-.4181-1.2379-.426s-.8855.1258-1.2521.382l-3.569 2.4956c-1.68153 1.1764-3.88603-.486-3.21754-2.4255l1.41795-4.1181c.146-.4229.15423-.8812.02353-1.3091-.13071-.4279-.39362-.8033-.75102-1.0725l-3.47425-2.619c-1.638972-1.2354-.73849-3.8435 1.31229-3.8092l4.34999.0769c.44742.0082.8859-.1256 1.2526-.382.3667-.2565.64275-.62254.78855-1.04561l1.4166-4.11802c.6685-1.93959 3.4317-1.89154 4.0288.07138l1.2711 4.16059c.1305.42802.3933.80366.7507 1.07296s.7909.4185 1.2383.426" fill="#fff"/><path d="m18.5645 11.075 4.35.0769c2.0507.0371 2.8579 2.6767 1.1763 3.8545l-3.5689 2.4941c-.3662.2568-.6418.6227-.7875 1.0455s-.154.8808-.0238 1.3087l1.2711 4.1605c.5999 1.963-1.6623 3.5456-3.2944 2.3102l-3.4742-2.619c-.3574-.269-.7907-.4181-1.2379-.426s-.8855.1258-1.2521.382l-3.569 2.4956c-1.68153 1.1764-3.88603-.486-3.21754-2.4255l1.41795-4.1181c.146-.4229.15423-.8812.02353-1.3091-.13071-.4279-.39362-.8033-.75102-1.0725l-3.47425-2.619c-1.638972-1.2354-.73849-3.8435 1.31229-3.8092l4.34999.0769c.44742.0082.8859-.1256 1.2526-.382.3667-.2565.64275-.62254.78855-1.04561l1.4166-4.11802c.6685-1.93959 3.4317-1.89154 4.0288.07138l1.2711 4.16059c.1305.42802.3933.80366.7507 1.07296s.7909.4185 1.2383.426" stroke="#434f5a" stroke-miterlimit="10" stroke-width="1.5"/><path d="m23.7574 2.69889-.0522.9238c-.0052.09439.0196.18799.0709.2674.0513.0794.1265.14053.2146.1746l.8621.33494c.088.03426.1629.09549.214.17494.0511.07944.0758.17303.0704.26734-.0053.09432-.0403.18452-.1001.2577-.0597.07318-.141.12558-.2324.1497l-.8936.23611c-.0922.02416-.1743.07714-.2343.15121s-.0948.16538-.0992.26059l-.0508.92381c-.0052.0945-.0402.18492-.1001.25826-.0598.07335-.1413.12584-.2328.14994s-.1883.01856-.2765-.01582c-.0882-.03437-.1632-.09582-.2142-.1755l-.5011-.77832c-.0512-.0792-.1263-.14017-.2143-.17419s-.1845-.03936-.2757-.01524l-.8936.23612c-.0913.02409-.188.01867-.276-.01549-.0881-.03415-.163-.09531-.2142-.17468s-.076-.17291-.0708-.26721c.0052-.09431.0401-.18454.0998-.2578l.5847-.71653c.0598-.07333.0947-.16372.0999-.25818s-.0197-.18812-.0711-.26755l-.501-.77694c-.0515-.07944-.0764-.17316-.0713-.26768.0052-.09452.0402-.18497.1-.25835.0598-.07337.1413-.1259.2329-.15001.0915-.02412.1883-.01858.2765.0158l.8634.33492c.0883.0339.1851.03888.2764.01421.0912-.02467.1723-.07772.2315-.15148l.5848-.71653c.0596-.07301.1408-.12531.232-.14943.0911-.02412.1876-.01884.2755.0151.088.03394.163.0948.2144.17389.0513.0791.0763.17238.0715.26655z" fill="#434f5a"/><path d="m23.531 25.7266c-.0354 0-.0707-.0028-.1057-.0083l-1.6678-.2347c-.0975-.0135-.1913-.0462-.2761-.0962-.0848-.0499-.1589-.1161-.2181-.1948-.1154-.1582-.1647-.3551-.1372-.549l.5051-3.5868-.6122-.0865c-.1968-.0279-.3746-.1328-.4942-.2915-.1197-.1588-.1715-.3586-.1441-.5555l.2183-1.5442c.0133-.0978.0459-.1919.0959-.2769.0499-.0851.1163-.1594.1951-.2187.1303-.0976.2887-.1506.4516-.151.0349.0001.0698.0028.1043.0083l.6122.0851.0604-.4324c.2142-1.5223 1.2354-2.4708 2.6671-2.4708.163 0 .3259.0115.4873.0343.4424.0685.8792.1694 1.3068.302.1692.0543.3136.1669.4076.3177s.1315.3301.1058.5059l-.1853 1.3136c-.0136.0975-.0463.1914-.0962.2762s-.1161.1589-.1948.218c-.1301.0982-.2887.1512-.4516.151-.0348.002-.0696.002-.1044 0l-.6726-.0947c-.0288-.0025-.0577-.0025-.0865 0h-.0343c-.0081.0255-.014.0517-.0178.0782l-.0371.2581.7385.1029c.1072.0152.2097.0533.3007.1118s.1682.1361.2264.2273c.0584.091.0963.1936.1112.3007s.0065.2162-.0247.3197l-.4544 1.51c-.0462.1545-.141.29-.2703.3864s-.2863.1486-.4476.1489c-.0349 0-.0698-.0028-.1043-.0082l-.5037-.07-.5052 3.5868c-.0292.1767-.1207.3371-.2579.4522-.1372.115-.3111.1772-.4902.1751z" fill="#fff"/><path d="m24.4797 16.4629c.1262.0005.2522.0101.3771.0286.394.0646.783.1601 1.1637.2857l-.1825 1.3657-.6622-.0972c-.0622-.0098-.125-.0151-.1879-.0157-.5149 0-.7312.3614-.7826.7557l-.1351 1.0415 1.4583.2157-.4474 1.5714-1.2272-.1814-.6 4.5057-1.6422-.2443.6001-4.5057-1.3326-.1986.2135-1.6071 1.3327.1986.1635-1.2243c.1649-1.2415.888-1.8958 1.8922-1.8958zm.0014-1.5629c-1.6814 0-2.9505 1.1429-3.3059 2.9243h-.0851c-.3209-.0002-.6331.1101-.8894.3143-.3116.2489-.5172.6183-.5717 1.0271l-.2149 1.6072c-.0511.3862.0364.7786.2453 1.1001.2088.3215.5239.5487.8833.637l-.3947 2.9672c-.0269.2031-.0157.4098.033.6084.0487.1985.1339.385.2508.5487.1166.1637.2625.3014.4295.4053.167.104.3517.1721.5437.2004l1.6421.2443c.0689.0109.1385.0161.2081.0157.3557-.0008.6991-.1372.9672-.3842.2682-.2469.443-.5878.4925-.9601l.3973-2.98c.3118-.0074.6133-.119.8614-.3186s.4301-.4772.5199-.7928l.4474-1.5714c.0559-.196.0747-.4018.0553-.6056-.0195-.2037-.0769-.4014-.1689-.5816.2593-.2453.4279-.5799.4758-.9443l.1824-1.3671c.0485-.3646-.0265-.7356-.2117-1.0475-.1853-.3118-.4688-.5445-.8006-.6568-.4604-.1525-.9312-.2676-1.4083-.3443-.193-.0287-.3876-.0435-.5825-.0442z" fill="#434f5a"/></svg>